<?xml version="1.0" encoding="utf-8"?>
<svg fill="#FF9E2A" role="img" viewBox="0 0 24 24" xmlns="http://www.w3.org/2000/svg">
  <title>Gatling</title>
  <path d="M 19.136 20.306 C 19.799 19.913 20.377 19.385 20.819 18.746 L 21.593 18.746 C 21.986 18.746 22.305 18.427 22.305 18.034 C 22.305 17.64 21.986 17.322 21.593 17.321 L 21.531 17.321 C 21.679 16.867 21.777 16.4 21.801 15.909 L 22.563 15.909 C 22.956 15.909 23.275 15.59 23.275 15.197 C 23.275 14.803 22.956 14.484 22.563 14.484 L 21.777 14.484 C 21.728 13.993 21.605 13.514 21.433 13.072 L 21.58 13.072 C 21.974 13.071 22.292 12.753 22.293 12.359 C 22.292 11.966 21.974 11.647 21.58 11.647 L 20.622 11.647 C 19.64 10.419 18.092 9.596 16.36 9.596 L 15.144 9.596 C 14.383 9.596 13.646 9.755 12.983 10.05 L 14.26 10.05 C 17.208 10.05 19.627 12.47 19.627 15.418 C 19.627 18.144 17.576 20.404 14.936 20.748 C 14.776 20.761 14.616 20.773 14.444 20.773 L 8.917 20.773 C 9.813 20.281 10.583 19.587 11.165 18.746 C 11.202 18.758 11.251 18.758 11.288 18.758 L 16.102 18.758 C 16.496 18.758 16.814 18.439 16.815 18.046 C 16.814 17.653 16.496 17.334 16.102 17.334 L 11.914 17.334 C 12.087 16.877 12.211 16.404 12.282 15.921 L 17.797 15.921 C 18.191 15.921 18.509 15.602 18.51 15.209 C 18.509 14.815 18.191 14.497 17.797 14.496 L 12.344 14.496 C 12.307 14.005 12.209 13.538 12.074 13.084 L 16.127 13.084 C 16.52 13.084 16.839 12.765 16.839 12.371 C 16.839 11.978 16.52 11.659 16.127 11.659 L 11.447 11.659 C 10.305 9.731 8.192 8.429 5.797 8.429 L 5.331 8.429 C 3.144 8.429 1.191 9.522 0 11.18 C 1.112 9.891 2.731 9.151 4.434 9.153 C 6.964 9.153 9.126 10.762 9.936 13.01 L 6.964 13.01 C 6.375 12.261 5.453 11.782 4.434 11.782 C 2.653 11.807 1.216 13.244 1.216 15.025 C 1.216 16.806 2.665 18.255 4.446 18.255 C 5.503 18.255 6.436 17.751 7.026 16.965 L 3.955 16.965 C 3.955 15.54 5.11 14.398 6.522 14.398 L 10.268 14.398 C 10.293 14.607 10.305 14.816 10.305 15.025 C 10.305 18.255 7.677 20.883 4.446 20.883 C 2.739 20.883 1.204 20.146 0.123 18.979 C 1.327 20.552 3.218 21.571 5.343 21.571 L 14.972 21.571 C 19.959 21.571 24 21.276 24 20.896 C 24 20.65 22.023 20.417 19.136 20.306 Z"/>
</svg>