<?xml version="1.0" encoding="utf-8"?>
<svg fill="#808080" viewBox="0 0 128 128" xmlns="http://www.w3.org/2000/svg">
  <path d="M 8.838 70.03 L 0 78.935 L 8.938 87.772 L 12.4 84.27 L 9.268 84.28 L 3.877 78.929 L 9.229 73.536 L 12.357 73.524 L 8.837 70.028 L 8.838 70.03 Z M 12.358 73.525 L 13.074 74.236 L 13.787 73.52 L 12.357 73.525 L 12.358 73.525 Z M 13.074 74.236 L 9.041 78.301 L 17.139 78.271 L 13.074 74.236 Z M 17.139 78.271 L 17.74 78.869 L 17.127 79.49 L 28.543 79.447 L 27.908 78.817 L 28.49 78.23 L 17.139 78.271 Z M 28.49 78.231 L 32.66 78.215 L 30.574 76.145 L 32.855 76.137 L 35.551 78.812 L 32.875 81.508 L 30.627 81.516 L 33.131 84 L 38.314 78.777 L 33.092 73.594 L 28.49 78.23 L 28.49 78.231 Z M 30.627 81.516 L 30.611 81.5 L 30.596 81.516 L 30.627 81.516 Z M 30.611 81.5 L 32.664 79.432 L 28.543 79.447 L 30.611 81.5 Z M 17.127 79.49 L 9.047 79.52 L 13.109 83.553 L 17.127 79.49 Z M 13.109 83.553 L 12.4 84.271 L 13.828 84.266 L 13.109 83.553 Z M 115.49 75.843 C 112.975 75.843 110.643 76.291 108.494 77.182 C 106.345 78.072 104.484 79.307 102.908 80.882 C 101.332 82.458 100.099 84.328 99.209 86.492 C 98.316 88.657 97.871 91.027 97.871 93.605 C 97.871 96.185 98.315 98.558 99.207 100.723 C 100.097 102.887 101.332 104.756 102.908 106.332 C 104.484 107.908 106.345 109.142 108.494 110.032 C 110.644 110.922 112.974 111.369 115.49 111.369 C 116.89 111.369 118.219 111.209 119.477 110.893 C 120.693 110.59 121.871 110.148 122.987 109.578 C 124.033 109.047 125.004 108.381 125.877 107.598 C 126.682 106.877 127.395 106.058 128 105.162 L 125.184 103.156 C 124.547 104.143 123.854 104.963 123.107 105.616 C 122.391 106.247 121.587 106.77 120.719 107.168 C 119.875 107.55 119.016 107.82 118.141 107.978 C 117.267 108.138 116.38 108.218 115.491 108.218 C 113.325 108.218 111.383 107.82 109.664 107.023 C 107.944 106.228 106.491 105.163 105.297 103.824 C 104.104 102.488 103.187 100.937 102.551 99.17 C 101.911 97.385 101.588 95.501 101.596 93.605 C 101.596 91.665 101.915 89.811 102.551 88.045 C 103.188 86.278 104.104 84.725 105.297 83.389 C 106.491 82.052 107.945 80.985 109.664 80.189 C 111.384 79.394 113.324 78.996 115.49 78.996 C 116.38 78.996 117.272 79.124 118.164 79.379 C 119.054 79.634 119.892 79.968 120.672 80.381 C 121.452 80.795 122.143 81.271 122.748 81.812 C 123.353 82.354 123.831 82.895 124.182 83.436 L 127.187 81.191 C 125.692 79.281 123.894 77.915 121.793 77.086 C 119.693 76.259 117.591 75.846 115.49 75.846 L 115.49 75.844 L 115.49 75.843 Z M 43.965 76.703 L 43.965 110.51 L 47.402 110.51 L 47.402 94.8 L 53.132 94.8 L 62.395 110.51 L 66.598 110.51 L 56.855 94.467 C 59.655 94.213 61.799 93.281 63.279 91.674 C 64.759 90.067 65.498 88.084 65.498 85.729 C 65.498 82.705 64.505 80.444 62.516 78.947 C 60.526 77.451 57.811 76.703 54.373 76.703 L 43.965 76.703 Z M 72.518 76.703 L 72.518 110.51 L 75.955 110.51 L 75.955 94.8 L 82.354 94.8 C 85.791 94.8 88.505 94.043 90.494 92.531 C 92.484 91.021 93.479 88.753 93.479 85.729 C 93.479 82.705 92.483 80.444 90.494 78.947 C 88.504 77.451 85.791 76.703 82.354 76.703 L 72.518 76.703 Z M 47.402 79.855 L 53.514 79.855 C 55.042 79.855 56.337 80.007 57.404 80.309 C 58.47 80.612 59.324 81.033 59.961 81.574 C 60.597 82.116 61.058 82.744 61.344 83.461 C 61.631 84.177 61.774 84.933 61.774 85.729 C 61.774 86.557 61.631 87.329 61.344 88.045 C 61.049 88.773 60.573 89.413 59.961 89.906 C 59.324 90.431 58.471 90.854 57.404 91.172 C 56.337 91.49 55.042 91.648 53.514 91.648 L 47.402 91.648 L 47.402 79.855 Z M 75.955 79.855 L 81.495 79.855 C 83.022 79.855 84.318 80.007 85.385 80.309 C 86.451 80.612 87.302 81.033 87.939 81.574 C 88.575 82.116 89.037 82.744 89.324 83.461 C 89.612 84.182 89.759 84.952 89.756 85.729 C 89.756 86.557 89.61 87.329 89.324 88.045 C 89.028 88.773 88.551 89.413 87.939 89.906 C 87.302 90.431 86.451 90.854 85.385 91.172 C 84.318 91.49 83.022 91.648 81.495 91.648 L 75.955 91.648 L 75.955 79.855 Z M 22.67 87.59 C 21.015 87.59 19.493 87.886 18.11 88.475 C 16.759 89.04 15.54 89.877 14.527 90.934 C 13.515 91.999 12.713 93.246 12.164 94.609 C 11.591 96.01 11.304 97.522 11.304 99.146 C 11.304 100.769 11.608 102.282 12.213 103.682 C 12.787 105.039 13.631 106.266 14.693 107.287 C 15.765 108.303 17.022 109.105 18.395 109.65 C 19.811 110.223 21.332 110.51 22.955 110.51 C 24.549 110.516 26.127 110.191 27.588 109.555 C 29.052 108.919 30.292 107.835 31.311 106.309 L 31.406 106.309 L 31.406 110.319 C 31.406 111.529 31.256 112.665 30.953 113.732 C 30.67 114.76 30.165 115.714 29.473 116.525 C 28.788 117.32 27.889 117.95 26.775 118.412 C 25.66 118.872 24.309 119.104 22.717 119.104 C 20.903 119.104 19.253 118.729 17.773 117.982 C 16.293 117.234 15.093 116.24 14.17 114.998 L 11.828 117.48 C 13.261 119.008 14.854 120.138 16.605 120.871 C 18.355 121.603 20.345 121.969 22.572 121.969 C 25.086 121.969 27.126 121.589 28.686 120.824 C 30.246 120.06 31.462 119.104 32.338 117.959 C 33.197 116.847 33.8 115.559 34.104 114.187 C 34.407 112.817 34.559 111.528 34.559 110.318 L 34.559 88.162 L 31.406 88.162 L 31.406 91.889 L 31.311 91.889 C 30.674 91.029 29.991 90.321 29.258 89.764 C 28.575 89.236 27.829 88.794 27.038 88.449 C 26.318 88.14 25.565 87.915 24.793 87.781 C 24.092 87.659 23.382 87.595 22.67 87.591 L 22.67 87.59 Z M 23.05 90.455 C 24.356 90.455 25.534 90.687 26.584 91.148 C 27.634 91.609 28.526 92.23 29.258 93.01 C 29.993 93.795 30.562 94.72 30.93 95.73 C 31.317 96.794 31.512 97.918 31.504 99.05 C 31.534 100.356 31.334 101.532 30.904 102.582 C 30.494 103.604 29.867 104.526 29.066 105.282 C 28.269 106.03 27.338 106.621 26.322 107.023 C 25.282 107.439 24.171 107.65 23.051 107.645 C 21.873 107.645 20.781 107.413 19.779 106.953 C 18.794 106.505 17.903 105.873 17.154 105.092 C 16.4 104.303 15.8 103.379 15.387 102.369 C 14.953 101.317 14.734 100.189 14.742 99.051 C 14.735 97.913 14.954 96.784 15.387 95.731 C 15.801 94.722 16.4 93.799 17.154 93.011 C 17.903 92.23 18.794 91.598 19.779 91.148 C 20.806 90.682 21.923 90.445 23.051 90.455 L 23.05 90.455 Z"/>
</svg>